<svg width="460" height="148" viewBox="0 0 460 148" fill="none" xmlns="http://www.w3.org/2000/svg">
<mask id="mask0_1100_592" style="mask-type:luminance" maskUnits="userSpaceOnUse" x="0" y="0" width="179" height="148">
<path d="M178.667 0H0V148H178.667V0Z" fill="white"/>
</mask>
<g mask="url(#mask0_1100_592)">
<mask id="mask1_1100_592" style="mask-type:luminance" maskUnits="userSpaceOnUse" x="82" y="1" width="96" height="123">
<path d="M82.9844 1.50537H177.724V123.177H82.9844V1.50537Z" fill="white"/>
</mask>
<g mask="url(#mask1_1100_592)">
<path d="M123.87 117.083H136.886V49.0366L123.87 55.5418V117.083ZM177.771 123.026H155.844V11.12L123.87 27.1095V48.9012L142.828 39.422V123.026H117.927V58.5158L104.917 65.021V123.026H82.9897V117.083H98.9741V61.3491L117.927 51.87V23.4325L161.787 1.50537V117.083H177.771V123.026Z" fill="black"/>
</g>
<mask id="mask2_1100_592" style="mask-type:luminance" maskUnits="userSpaceOnUse" x="1" y="83" width="85" height="64">
<path d="M1.02588 83.5991H85.1821V146.599H1.02588V83.5991Z" fill="white"/>
</mask>
<g mask="url(#mask2_1100_592)">
<path d="M42.0518 146.495L36.1768 146.485L26.4788 114.557L22.5049 121.735L19.8174 123.323H1.09863V117.177H18.0101L24.6195 105.224L30.2445 105.818L39.1299 135.068L54.9007 83.6356L60.7653 83.6147L71.3226 117.177H84.9059V123.323H69.0674L66.1351 121.172L57.8747 94.896L42.0518 146.495Z" fill="black"/>
</g>
</g>
<mask id="mask3_1100_592" style="mask-type:luminance" maskUnits="userSpaceOnUse" x="200" y="26" width="260" height="97">
<path d="M460 26.6665H200V122.667H460V26.6665Z" fill="white"/>
</mask>
<g mask="url(#mask3_1100_592)">
<path d="M219.204 67.0501C221.188 67.0501 222.917 66.6439 224.391 65.821C225.86 65.0033 227.042 63.8783 227.933 62.446L234.079 65.5085C232.605 68.0501 230.584 70.0918 228.016 71.6335C225.459 73.1751 222.521 73.946 219.204 73.946C216.631 73.946 214.277 73.4876 212.141 72.571C210.001 71.6439 208.162 70.3366 206.62 68.6543C205.079 66.9772 203.881 65.0241 203.037 62.8001C202.204 60.5814 201.787 58.1855 201.787 55.6126C201.787 53.0449 202.204 50.6491 203.037 48.4251C203.881 46.1908 205.079 44.2376 206.62 42.571C208.162 40.8939 210.001 39.5918 212.141 38.6751C214.277 37.748 216.631 37.2793 219.204 37.2793C222.521 37.2793 225.459 38.0449 228.016 39.571C230.584 41.0866 232.605 43.1283 234.079 45.696L227.933 48.7793C227.042 47.3366 225.86 46.196 224.391 45.3626C222.917 44.5293 221.188 44.1126 219.204 44.1126C217.037 44.1126 215.173 44.623 213.62 45.6335C212.063 46.6335 210.86 48.0033 210.016 49.7376C209.183 51.4616 208.766 53.4199 208.766 55.6126C208.766 57.7689 209.183 59.7116 210.016 61.446C210.86 63.1699 212.063 64.5397 213.62 65.5501C215.173 66.5501 217.037 67.0501 219.204 67.0501Z" fill="black"/>
<path d="M237.952 37.5918H244.765V73.5293H237.952V37.5918Z" fill="black"/>
<path d="M275.286 37.5918V44.1543H265.62V73.5293H258.786V44.1543H249.141V37.5918H275.286Z" fill="black"/>
<path d="M309.177 37.5918L296.697 59.8626V73.5293H289.864V59.8626L277.343 37.5918H285.197L293.26 52.5293L301.364 37.5918H309.177Z" fill="black"/>
<path d="M325.818 37.5918C328.485 37.5918 330.745 38.123 332.61 39.1751C334.485 40.2324 335.901 41.6543 336.86 43.446C337.818 45.2272 338.297 47.2064 338.297 49.3835C338.297 51.5814 337.818 53.571 336.86 55.3626C335.901 57.1439 334.485 58.5605 332.61 59.6126C330.745 60.6699 328.485 61.196 325.818 61.196H319.339V73.5293H312.526V37.5918H325.818ZM325.672 54.6751C327.381 54.6751 328.735 54.1855 329.735 53.196C330.745 52.196 331.256 50.9251 331.256 49.3835C331.256 47.8574 330.745 46.6074 329.735 45.6335C328.735 44.6491 327.381 44.1543 325.672 44.1543H319.339V54.6751H325.672Z" fill="black"/>
<path d="M363.112 37.5918H369.924V59.4043C369.924 62.3939 369.362 64.9772 368.237 67.1543C367.112 69.321 365.513 70.998 363.445 72.1751C361.372 73.3574 358.95 73.946 356.174 73.946C353.393 73.946 350.971 73.3574 348.903 72.1751C346.83 70.998 345.226 69.321 344.091 67.1543C342.966 64.9772 342.403 62.3939 342.403 59.4043V37.5918H349.237V59.2585C349.237 61.6491 349.851 63.5449 351.091 64.946C352.325 66.3522 354.018 67.0501 356.174 67.0501C358.299 67.0501 359.987 66.3522 361.237 64.946C362.487 63.5449 363.112 61.6491 363.112 59.2585V37.5918Z" fill="black"/>
<path d="M382.151 67.0085H396.901V73.5293H375.339V37.5918H382.151V67.0085Z" fill="black"/>
<path d="M414.672 51.9043C417.031 52.6283 419.14 53.4251 421.005 54.3001C422.88 55.1751 424.344 56.3105 425.401 57.696C426.469 59.071 427.005 60.8783 427.005 63.1126C427.005 65.1022 426.531 66.9355 425.588 68.6126C424.64 70.2793 423.198 71.623 421.255 72.6335C419.323 73.6439 416.87 74.1543 413.901 74.1543C411.568 74.1543 409.364 73.7689 407.297 73.0085C405.224 72.2324 403.489 71.1699 402.088 69.821C400.682 68.4616 399.807 66.9251 399.463 65.2168L405.734 62.8001C406.078 64.1647 406.953 65.2376 408.359 66.0293C409.76 66.821 411.401 67.2168 413.276 67.2168C415.37 67.2168 416.969 66.8522 418.068 66.1126C419.161 65.3783 419.713 64.4616 419.713 63.3626C419.713 62.6439 419.484 62.0397 419.026 61.5501C418.578 61.0501 417.802 60.571 416.693 60.1126C415.578 59.6439 414.052 59.1126 412.109 58.5293C407.953 57.2949 404.969 55.8314 403.151 54.1335C401.344 52.4408 400.443 50.2793 400.443 47.6543C400.443 46.446 400.672 45.2376 401.13 44.0293C401.599 42.8105 402.328 41.696 403.318 40.696C404.318 39.6855 405.63 38.8626 407.255 38.2376C408.88 37.6022 410.838 37.2793 413.13 37.2793C414.974 37.2793 416.755 37.6022 418.463 38.2376C420.182 38.8626 421.656 39.7741 422.88 40.9668C424.114 42.1647 424.906 43.623 425.255 45.3418L419.193 47.5918C419.052 46.8418 418.661 46.2116 418.026 45.696C417.401 45.1855 416.656 44.7793 415.797 44.4876C414.948 44.196 414.073 44.0501 413.172 44.0501C411.739 44.0241 410.469 44.2741 409.359 44.8001C408.245 45.3314 407.693 46.1908 407.693 47.3835C407.693 47.9408 407.88 48.4616 408.255 48.946C408.63 49.4199 409.318 49.8835 410.318 50.3418C411.328 50.8001 412.781 51.321 414.672 51.9043Z" fill="black"/>
<path d="M437.928 67.0085H454.991V73.5293H431.116V37.5918H454.678V44.1543H437.928V52.321H453.095V58.8418H437.928V67.0085Z" fill="black"/>
<path d="M323.972 114.592C322.608 114.592 321.441 114.415 320.472 114.05C319.498 113.675 318.769 113.05 318.285 112.175C317.129 112.399 316.019 112.467 314.951 112.383C313.894 112.3 312.957 112.071 312.139 111.696C311.316 111.321 310.67 110.79 310.201 110.092C309.728 109.383 309.493 108.508 309.493 107.467C309.493 106.248 309.826 105.175 310.493 104.258C311.16 103.331 312.066 102.545 313.222 101.904C314.389 101.269 315.701 100.774 317.16 100.425L317.076 98.3418H320.931L321.41 108.029C321.451 109.17 321.691 109.904 322.139 110.238C322.597 110.571 323.295 110.738 324.243 110.738C324.936 110.738 325.431 110.92 325.722 111.279C326.014 111.644 326.16 112.087 326.16 112.613C326.16 113.186 325.972 113.654 325.597 114.029C325.222 114.404 324.681 114.592 323.972 114.592ZM313.326 107.113C313.326 107.529 313.524 107.857 313.931 108.092C314.347 108.331 314.873 108.482 315.514 108.55C316.149 108.607 316.816 108.571 317.514 108.446L317.347 104.238C316.097 104.436 315.108 104.795 314.389 105.321C313.681 105.852 313.326 106.446 313.326 107.113ZM314.306 95.4876C313.774 95.4876 313.326 95.3001 312.951 94.9251C312.576 94.5501 312.389 94.1074 312.389 93.5918C312.389 93.0658 312.576 92.6126 312.951 92.2376C313.326 91.8522 313.774 91.6543 314.306 91.6543C314.816 91.6543 315.254 91.8522 315.618 92.2376C315.978 92.6126 316.16 93.0658 316.16 93.5918C316.16 94.1074 315.978 94.5501 315.618 94.9251C315.254 95.3001 314.816 95.4876 314.306 95.4876ZM319.035 95.5085C318.504 95.5085 318.056 95.3314 317.681 94.9668C317.306 94.6074 317.118 94.1647 317.118 93.6335C317.118 93.0918 317.306 92.6335 317.681 92.2585C318.056 91.873 318.504 91.6751 319.035 91.6751C319.545 91.6751 319.983 91.873 320.347 92.2585C320.722 92.6335 320.91 93.0918 320.91 93.6335C320.91 94.1647 320.722 94.6074 320.347 94.9668C319.983 95.3314 319.545 95.5085 319.035 95.5085Z" fill="black"/>
<path d="M323.969 114.592L324.24 110.737C324.933 110.737 325.48 110.675 325.886 110.55C326.303 110.425 326.636 110.17 326.886 109.779C327.136 109.394 327.344 108.816 327.511 108.05C327.688 107.274 327.87 106.248 328.053 104.967L331.636 105.571C331.563 105.987 331.48 106.487 331.386 107.071C331.303 107.654 331.261 108.196 331.261 108.696C331.261 109.128 331.349 109.503 331.532 109.821C331.724 110.128 332.073 110.357 332.573 110.508C333.084 110.665 333.813 110.737 334.761 110.737C335.454 110.737 335.948 110.92 336.24 111.279C336.532 111.644 336.678 112.086 336.678 112.612C336.678 113.185 336.49 113.654 336.115 114.029C335.74 114.404 335.198 114.592 334.49 114.592C333.032 114.592 331.891 114.441 331.073 114.133C330.266 113.816 329.688 113.253 329.344 112.446C328.662 113.394 327.855 113.987 326.928 114.237C326.011 114.472 325.021 114.592 323.969 114.592ZM329.844 102.446C329.271 102.446 328.787 102.253 328.386 101.862C327.995 101.477 327.803 101.003 327.803 100.446C327.803 99.8781 327.995 99.3937 328.386 98.9875C328.787 98.5864 329.271 98.3833 329.844 98.3833C330.386 98.3833 330.849 98.5864 331.24 98.9875C331.625 99.3937 331.823 99.8781 331.823 100.446C331.823 101.003 331.625 101.477 331.24 101.862C330.849 102.253 330.386 102.446 329.844 102.446Z" fill="black"/>
<path d="M334.485 114.592L334.756 110.738C335.85 110.738 336.694 110.691 337.277 110.592C337.86 110.482 338.261 110.274 338.485 109.967C338.72 109.665 338.84 109.232 338.84 108.675C338.84 108.165 338.767 107.55 338.631 106.842C338.491 106.123 338.308 105.383 338.09 104.633C337.881 103.873 337.662 103.165 337.444 102.508L341.215 101.467C341.433 102.081 341.657 102.8 341.881 103.633C342.116 104.456 342.303 105.3 342.444 106.175C342.595 107.05 342.673 107.883 342.673 108.675C342.673 109.915 342.47 110.92 342.069 111.696C341.662 112.477 341.1 113.071 340.381 113.488C339.657 113.904 338.798 114.196 337.798 114.363C336.798 114.514 335.694 114.592 334.485 114.592ZM341.256 120.946C340.725 120.946 340.277 120.758 339.902 120.383C339.527 120.019 339.34 119.576 339.34 119.05C339.34 118.519 339.527 118.061 339.902 117.675C340.277 117.3 340.725 117.113 341.256 117.113C341.767 117.113 342.204 117.3 342.569 117.675C342.928 118.061 343.11 118.519 343.11 119.05C343.11 119.576 342.928 120.019 342.569 120.383C342.204 120.758 341.767 120.946 341.256 120.946ZM336.506 120.946C335.975 120.946 335.527 120.758 335.152 120.383C334.777 120.019 334.59 119.576 334.59 119.05C334.59 118.519 334.777 118.061 335.152 117.675C335.527 117.3 335.975 117.113 336.506 117.113C337.017 117.113 337.454 117.3 337.819 117.675C338.194 118.061 338.381 118.519 338.381 119.05C338.381 119.576 338.194 120.019 337.819 120.383C337.454 120.758 337.017 120.946 336.506 120.946Z" fill="black"/>
<path d="M350.296 110.738C351.514 110.738 352.327 110.581 352.733 110.258C353.134 109.941 353.337 109.587 353.337 109.196C353.337 108.753 353.212 108.238 352.962 107.654C352.712 107.071 352.405 106.462 352.046 105.821C351.681 105.186 351.301 104.571 350.9 103.988C350.494 103.404 350.15 102.894 349.858 102.446L353.108 100.279C354.301 101.878 355.238 103.42 355.921 104.904C356.598 106.394 357.051 107.602 357.275 108.529C357.468 109.404 357.848 109.998 358.421 110.3C358.988 110.592 359.587 110.738 360.212 110.738C360.905 110.738 361.4 110.92 361.692 111.279C361.994 111.644 362.15 112.087 362.15 112.613C362.15 113.186 361.962 113.654 361.587 114.029C361.212 114.404 360.66 114.592 359.942 114.592C358.218 114.592 356.931 114.061 356.087 112.988C355.598 113.462 354.905 113.852 354.004 114.154C353.113 114.456 352.056 114.613 350.837 114.613C349.988 114.613 349.046 114.514 348.004 114.321C346.973 114.113 346.067 113.79 345.275 113.342L346.608 109.863C347.285 110.186 347.942 110.415 348.567 110.55C349.202 110.675 349.78 110.738 350.296 110.738Z" fill="black"/>
<path d="M359.954 114.592L360.224 110.738C360.667 110.738 361.006 110.649 361.245 110.467C361.495 110.29 361.735 109.977 361.974 109.529C362.209 109.087 362.542 108.462 362.974 107.654C363.875 105.92 364.839 104.717 365.87 104.05C366.912 103.373 367.917 103.029 368.891 103.029C369.891 103.029 370.813 103.363 371.662 104.029C372.506 104.696 373.308 105.925 374.058 107.717C374.584 108.956 375.11 109.769 375.641 110.154C376.183 110.545 376.745 110.738 377.329 110.738C378.021 110.738 378.516 110.92 378.808 111.279C379.099 111.644 379.245 112.087 379.245 112.613C379.245 113.186 379.047 113.654 378.662 114.029C378.287 114.404 377.75 114.592 377.058 114.592C376.25 114.592 375.506 114.472 374.829 114.238C374.146 113.988 373.589 113.644 373.162 113.196C372.839 113.644 372.412 114.045 371.87 114.404C371.339 114.764 370.693 114.946 369.933 114.946C369.474 114.946 368.938 114.852 368.329 114.675C367.714 114.508 367.084 114.227 366.433 113.821C365.777 113.404 365.183 112.837 364.641 112.113C364.11 113.087 363.5 113.748 362.808 114.092C362.11 114.425 361.162 114.592 359.954 114.592ZM366.224 108.883C366.568 109.456 367.068 109.977 367.724 110.446C368.391 110.904 369.079 111.133 369.787 111.133C370.146 111.133 370.443 110.998 370.683 110.717C370.933 110.425 370.943 109.998 370.724 109.425C370.599 109.123 370.417 108.758 370.183 108.342C369.959 107.925 369.704 107.566 369.412 107.258C369.131 106.956 368.829 106.8 368.495 106.8C368.131 106.8 367.756 106.967 367.37 107.3C366.995 107.623 366.61 108.149 366.224 108.883Z" fill="black"/>
<path d="M377.042 114.592L377.313 110.737C378.157 110.737 378.761 110.654 379.125 110.487C379.485 110.31 379.698 109.982 379.771 109.508C379.854 109.024 379.875 108.316 379.834 107.383L379.334 94.3833H383.209L383.75 107.654C383.792 108.711 383.75 109.665 383.625 110.508C383.511 111.357 383.229 112.086 382.771 112.696C382.323 113.295 381.636 113.758 380.709 114.092C379.792 114.425 378.568 114.592 377.042 114.592Z" fill="black"/>
<path d="M387.363 114.446L386.8 94.3833H390.634L391.196 114.446H387.363Z" fill="black"/>
<path d="M409.147 120.779C407.522 120.779 406.053 120.508 404.751 119.966C403.444 119.435 402.402 118.644 401.626 117.591C400.86 116.55 400.48 115.243 400.48 113.675C400.48 113.05 400.563 112.258 400.73 111.3C400.907 110.331 401.303 109.175 401.917 107.841L405.272 109.029C404.964 109.878 404.73 110.612 404.563 111.237C404.397 111.852 404.313 112.446 404.313 113.029C404.313 114.128 404.74 115.05 405.605 115.8C406.48 116.56 407.694 116.946 409.251 116.946C411.22 116.946 412.657 116.539 413.563 115.737C414.464 114.946 414.917 113.8 414.917 112.3C414.917 111.524 414.772 110.607 414.48 109.55C414.188 108.482 413.86 107.31 413.501 106.029L417.334 105.05C417.584 106.107 417.777 106.935 417.917 107.529C418.069 108.128 418.199 108.56 418.313 108.821C418.48 109.227 418.709 109.571 419.001 109.862C419.303 110.144 419.792 110.373 420.459 110.55C421.126 109.508 421.881 108.508 422.73 107.55C423.589 106.581 424.511 105.706 425.501 104.925C426.485 104.149 427.511 103.529 428.584 103.071C429.652 102.612 430.74 102.383 431.855 102.383C433.074 102.383 434.115 102.628 434.98 103.112C435.839 103.602 436.501 104.269 436.959 105.112C437.428 105.961 437.667 106.92 437.667 107.987C437.667 109.321 437.292 110.503 436.542 111.529C435.792 112.545 434.574 113.341 432.897 113.925C431.23 114.508 429.001 114.8 426.209 114.8C424.72 114.8 423.303 114.68 421.959 114.446C420.626 114.227 419.527 113.878 418.667 113.404C418.511 114.93 418.022 116.243 417.188 117.341C416.365 118.435 415.272 119.284 413.897 119.883C412.532 120.477 410.949 120.779 409.147 120.779ZM431.501 106.216C430.652 106.216 429.798 106.466 428.938 106.966C428.089 107.466 427.277 108.086 426.501 108.821C425.735 109.545 425.069 110.253 424.501 110.946C424.928 110.961 425.386 110.966 425.876 110.966C427.876 110.966 429.449 110.857 430.605 110.633C431.772 110.399 432.595 110.081 433.084 109.675C433.584 109.274 433.834 108.8 433.834 108.258C433.834 107.789 433.647 107.331 433.272 106.883C432.907 106.44 432.319 106.216 431.501 106.216ZM439.251 114.591C437.845 114.591 436.542 114.404 435.334 114.029C434.126 113.654 433.199 113.19 432.563 112.633L435.022 109.987C435.688 110.253 436.365 110.446 437.063 110.571C437.756 110.685 438.574 110.737 439.522 110.737C440.199 110.737 440.694 110.92 441.001 111.279C441.303 111.644 441.459 112.086 441.459 112.612C441.459 113.185 441.261 113.654 440.876 114.029C440.501 114.404 439.959 114.591 439.251 114.591ZM430.876 99.9248C430.303 99.9248 429.819 99.7321 429.417 99.3415C429.027 98.9561 428.834 98.4821 428.834 97.9248C428.834 97.3571 429.027 96.8727 429.417 96.4665C429.819 96.0654 430.303 95.8623 430.876 95.8623C431.417 95.8623 431.881 96.0654 432.272 96.4665C432.657 96.8727 432.855 97.3571 432.855 97.9248C432.855 98.4821 432.657 98.9561 432.272 99.3415C431.881 99.7321 431.417 99.9248 430.876 99.9248Z" fill="black"/>
<path d="M439.261 114.592L439.532 110.738C440.225 110.738 440.772 110.675 441.178 110.55C441.595 110.425 441.928 110.17 442.178 109.779C442.428 109.394 442.636 108.816 442.803 108.05C442.98 107.274 443.162 106.248 443.345 104.967L446.928 105.571C446.855 105.988 446.772 106.488 446.678 107.071C446.595 107.654 446.553 108.196 446.553 108.696C446.553 109.128 446.641 109.503 446.824 109.821C447.016 110.128 447.365 110.357 447.865 110.508C448.376 110.665 449.105 110.738 450.053 110.738C450.746 110.738 451.24 110.92 451.532 111.279C451.824 111.644 451.97 112.087 451.97 112.613C451.97 113.186 451.782 113.654 451.407 114.029C451.032 114.404 450.49 114.592 449.782 114.592C448.324 114.592 447.183 114.441 446.365 114.133C445.558 113.816 444.98 113.253 444.636 112.446C443.954 113.394 443.147 113.988 442.22 114.238C441.303 114.472 440.313 114.592 439.261 114.592ZM444.136 120.883C443.605 120.883 443.157 120.701 442.782 120.342C442.407 119.977 442.22 119.535 442.22 119.008C442.22 118.477 442.407 118.014 442.782 117.613C443.157 117.222 443.605 117.029 444.136 117.029C444.647 117.029 445.095 117.222 445.47 117.613C445.855 118.014 446.053 118.477 446.053 119.008C446.053 119.535 445.855 119.977 445.47 120.342C445.095 120.701 444.647 120.883 444.136 120.883Z" fill="black"/>
<path d="M449.777 114.592L450.048 110.737C451.24 110.737 452.074 110.607 452.548 110.342C453.016 110.081 453.256 109.524 453.256 108.675C453.256 108.165 453.183 107.55 453.048 106.842C452.907 106.123 452.725 105.383 452.506 104.633C452.298 103.873 452.079 103.165 451.86 102.508L455.631 101.467C455.85 102.081 456.074 102.8 456.298 103.633C456.516 104.456 456.704 105.3 456.86 106.175C457.011 107.05 457.089 107.883 457.089 108.675C457.089 109.915 456.891 110.92 456.506 111.696C456.131 112.477 455.595 113.071 454.902 113.487C454.22 113.904 453.444 114.196 452.569 114.362C451.694 114.514 450.761 114.592 449.777 114.592ZM453.735 99.1958C453.162 99.1958 452.678 99.0031 452.277 98.6125C451.886 98.2271 451.694 97.7531 451.694 97.1958C451.694 96.6281 451.886 96.1437 452.277 95.7375C452.678 95.3364 453.162 95.1333 453.735 95.1333C454.277 95.1333 454.74 95.3364 455.131 95.7375C455.516 96.1437 455.714 96.6281 455.714 97.1958C455.714 97.7531 455.516 98.2271 455.131 98.6125C454.74 99.0031 454.277 99.1958 453.735 99.1958Z" fill="black"/>
</g>
</svg>
